<?xml version="1.0" encoding="UTF-8"?>
<svg width="800" height="400" viewBox="0 0 800 400" xmlns="http://www.w3.org/2000/svg">
  <!-- Fuselage -->
  <path d="M 300,200 
           C 350,200 400,200 600,200
           L 650,195 
           C 680,195 700,198 720,200
           L 700,202
           C 680,203 650,205 600,205
           C 400,205 350,203 300,203
           Z" 
        fill="#34495e"/>
  
  <!-- Main Wing -->
  <path d="M 400,200 
           L 450,200 
           L 550,160 
           L 580,140
           C 560,150 520,180 450,195
           L 400,198 
           Z" 
        fill="#2c3e50"/>
  
  <!-- Tail Wing -->
  <path d="M 600,200 
           L 620,180 
           L 640,150
           L 650,140
           C 645,150 635,170 620,190
           L 600,202 
           Z" 
        fill="#2c3e50"/>
  
  <!-- Cockpit -->
  <path d="M 450,195
           C 460,193 470,192 480,190
           C 485,188 490,187 495,185
           C 490,188 485,190 480,193
           C 470,195 460,196 450,198
           Z"
        fill="#95a5a6"/>
  
  <!-- Propeller -->
  <circle cx="300" cy="200" r="20" fill="#2c3e50"/>
  <path d="M 280,200 L 320,200 M 300,180 L 300,220" 
        stroke="#95a5a6" 
        stroke-width="5"/>
</svg> 